<?xml version="1.0" encoding="UTF-8"?><svg id="Icon_export" xmlns="http://www.w3.org/2000/svg" viewBox="0 0 48 48"><rect x="10" y="5" width="28" height="35" style="fill:#95caeb;"/><path d="m10,16.842l-4.534,2.864c-.29.183-.466.502-.466.845v13.449h5v-17.158Z" style="fill:#001b41;"/><path d="m24,10c-3.859,0-7,3.14-7,7s3.141,7,7,7c.944,0,1.861-.186,2.725-.55.255-.108.374-.401.267-.655-.108-.256-.402-.371-.655-.267-.74.313-1.525.472-2.336.472-3.309,0-6-2.691-6-6s2.691-6,6-6c3.589,0,6,2.479,6,6.169,0,2.457-3,2.292-3,.254v-.423c0-1.654-1.346-3-3-3s-3,1.346-3,3,1.346,3,3,3c.978,0,1.841-.478,2.389-1.205.439.71,1.21,1.176,2.111,1.176,1.242,0,2.5-.963,2.5-2.802,0-4.221-2.879-7.169-7-7.169Zm0,9c-1.103,0-2-.897-2-2s.897-2,2-2,2,.897,2,2-.897,2-2,2Z" style="fill:#001b41;"/><path d="m42.534,19.706l-4.534-2.864v17.158h5v-13.449c0-.343-.176-.662-.466-.845Z" style="fill:#1474c4;"/><path d="m7,43h35c.552,0,1-.448,1-1v-20L7,43Z" style="fill:#001b41;"/><path d="m5,22v20c0,.552.448,1,1,1h35L5,22Z" style="fill:#1474c4;"/><rect width="48" height="48" style="fill:none;"/></svg>